<svg xmlns="http://www.w3.org/2000/svg" width="88" height="72" viewBox="0 0 88 72" class="c-icon__svg" aria-hidden="true"><defs><path id="a" d="M.01555942.159588h3.18524326v13.1507532H.01555942z"/><path id="b" d="M.3797808.3805308h44.2981035V33.696H.3797808z"/><path id="c" d="M0 .2967588h54.7902888V62.244H0z"/></defs><g fill="none" fill-rule="evenodd"><path fill="#E16D42" d="M56.0000994 13.6188h-6.3704865V1.461096c0-.548496.4434202-.993096.9915045-.993096h4.3874775c.547617 0 .9915045.4446.9915045.993096V13.6188z"/><path fill="#45322C" d="M55.00808093.4679532h-2.1932715v13.1508h3.18524325V1.4615172c0-.548964-.4438875-.993564-.99197175-.993564"/><path fill="#829CA7" d="M42.7827183 71.9124588H79.220275c1.5578115 0 2.8207883-1.265004 2.8207883-2.825316v-27.664884c0-1.560312 1.2625095-2.825316 2.820321-2.825316H40.5632808v32.230224c.51631125.65988 1.317645 1.085292 2.2194375 1.085292"/><path fill="#829CA7" d="M84.861431 38.5969428H40.5633275v5.44752H82.04111v-2.622204c0-1.560312 1.2625095-2.825316 2.820321-2.825316"/><path fill="#FF5A5F" d="M87.9040696 35.7407388l-5.863053-5.872464v-.102024h-.1023278l-18.9427822-18.973656c-.5504205-.551304-1.2723218-.827424-1.994223-.827424h-33.606489v23.341032h9.1342702l-2.4301672 2.434536c-1.0527143 1.053936-.3074505 2.856672 1.1807407 2.856672h1.861524c1.5578115 0 2.8207883 1.264536 2.8207883 2.824848v27.664884c0 .657072.2256817 1.260324.6013507 1.740024v-32.229756h46.1591603"/><path fill="#B3CDD7" d="M53.1165127 38.5971768c1.4881913 0 2.2334551-1.802268 1.181208-2.856672l-5.8635202-5.871996v-.102492H48.33234l-18.9427822-18.973188c-1.1013083-1.103544-2.8871378-1.103544-3.9889133 0L6.45786225 29.7660168H6.3555345v.102492l-5.863053 5.871996c-1.052247 1.054404-.30698325 2.856672 1.181208 2.856672h1.861524c1.5578115 0 2.820321 1.265004 2.820321 2.825316v27.664884c0 1.560312 1.26297675 2.825316 2.82078825 2.825316H45.6138795c1.5578115 0 2.820321-1.265004 2.820321-2.825316v-27.664884c0-1.560312 1.2629767-2.825316 2.8207883-2.825316h1.8615239z"/><path fill="#FFF" d="M31.5479724 68.0062032h-8.3053688c-.6041542 0-1.0938322-.489996-1.0938322-1.09512v-16.860636c0-.604656.489678-1.09512 1.0938322-1.09512h8.3053688c.603687 0 1.093365.490464 1.093365 1.09512v16.860636c0 .605124-.489678 1.09512-1.093365 1.09512"/><path fill="#829CA7" d="M31.5479724 47.5513272h-8.3053688c-1.3760512 0-2.4955822 1.121328-2.4955822 2.49912v16.860636c0 1.37826 1.119531 2.49912 2.4955822 2.49912h8.3053688c1.375584 0 2.495115-1.12086 2.495115-2.49912v-16.860636c0-1.377792-1.119531-2.49912-2.495115-2.49912m0 1.404c.603687 0 1.093365.490464 1.093365 1.09512v16.860636c0 .605124-.489678 1.09512-1.093365 1.09512h-8.3053688c-.6041542 0-1.0938322-.489996-1.0938322-1.09512v-16.860636c0-.604656.489678-1.09512 1.0938322-1.09512h8.3053688"/><path fill="#FFF" d="M62.0994407 58.4807652H55.883614c-.6041543 0-1.093365-.490464-1.093365-1.09512v-7.334964c0-.605124.4892107-1.095588 1.093365-1.095588h6.2158267c.6041543 0 1.0938323.490464 1.0938323 1.095588v7.334964c0 .604656-.489678 1.09512-1.0938323 1.09512"/><path fill="#195972" d="M62.0994407 47.5513272H55.883614c-1.375584 0-2.495115 1.121328-2.495115 2.49912v7.334964c0 1.37826 1.119531 2.499588 2.495115 2.499588h6.2158267c1.375584 0 2.4955823-1.121328 2.4955823-2.499588v-7.334964c0-1.377792-1.1199983-2.49912-2.4955823-2.49912m0 1.404c.6041543 0 1.0938323.490464 1.0938323 1.09512v7.334964c0 .605124-.489678 1.095588-1.0938323 1.095588H55.883614c-.6041543 0-1.093365-.490464-1.093365-1.095588v-7.334964c0-.604656.4892107-1.09512 1.093365-1.09512h6.2158267"/><path fill="#FFF" d="M76.369723 58.4807652h-6.216294c-.603687 0-1.093365-.490464-1.093365-1.09512v-7.334964c0-.605124.489678-1.095588 1.093365-1.095588h6.216294c.603687 0 1.093365.490464 1.093365 1.095588v7.334964c0 .604656-.489678 1.09512-1.093365 1.09512"/><path fill="#195972" d="M76.369723 47.5513272h-6.216294c-1.375584 0-2.495115 1.121328-2.495115 2.49912v7.334964c0 1.37826 1.119531 2.499588 2.495115 2.499588h6.216294c1.375584 0 2.495115-1.121328 2.495115-2.499588v-7.334964c0-1.377792-1.119531-2.49912-2.495115-2.49912m0 1.404c.603687 0 1.093365.490464 1.093365 1.09512v7.334964c0 .605124-.489678 1.095588-1.093365 1.095588h-6.216294c-.603687 0-1.093365-.490464-1.093365-1.095588v-7.334964c0-.604656.489678-1.09512 1.093365-1.09512h6.216294"/><path fill="#829CA7" d="M34.0137908 32.6660256c0 3.661164-2.9632995 6.62922-6.6185962 6.62922-3.6552968 0-6.6185963-2.968056-6.6185963-6.62922 0-3.661164 2.9632995-6.62922 6.6185963-6.62922 3.6552967 0 6.6185962 2.968056 6.6185962 6.62922"/><path fill="#FFF" d="M28.4095476 32.0627736h3.7253842c.252315 0 .4396823-.234468.386883-.481572-.4303372-2.015208-2.012913-3.600792-4.0248915-4.03182-.246708-.052416-.4808002.135252-.4808002.387972v3.731364c0 .21762.1761532.394056.3934245.394056M26.7743595 31.6685772v-3.731364c0-.25272-.2340923-.440388-.4808003-.387504-2.0119785.431028-3.5950215 2.016144-4.0253587 4.031352-.052332.247104.1350352.481572.3873502.481572h3.724917c.2177385 0 .3938918-.176436.3938918-.394056M28.0159829 33.7007736v3.731364c0 .25272.2340923.440388.4808003.387504 2.0119785-.431028 3.5950215-2.016144 4.0248915-4.03182.0527992-.246636-.134568-.481572-.386883-.481572h-3.7253843c-.2172712 0-.3934245.176904-.3934245.394524M26.3806079 33.3063432h-3.7253842c-.252315 0-.4396823.234468-.386883.481572.4303372 2.015208 2.012913 3.600792 4.0248915 4.03182.246708.052416.4812675-.135252.4812675-.387972v-3.730896c0-.218088-.1766205-.394524-.3938918-.394524"/></g></svg>