<svg xmlns="http://www.w3.org/2000/svg" width="257.6" height="130.2" viewBox="0 0 257.6 130.2" class="c-icon__svg" aria-hidden="true"><path fill="#45322C" d="M23.7,37c0,0-5.5,1.3-4.3,13c-7.6,5.9-4.8,12.5-3,14.6c-3.3,3.6-1.6,15.6,9.1,12.7c5,8,13.9-0.4,13.9-0.4 c1.3,2.8,10.4,5.8,10.4,5.8L54.4,44L23.7,37z"/><path fill="#45322C" d="M83.3,37c0,0,5.5,1.3,4.3,13c7.6,5.9,4.8,12.5,3,14.6c3.3,3.6,1.7,15.6-9.1,12.7c-5,8-13.9-0.4-13.9-0.4 c-1.3,2.8-10.4,5.8-10.4,5.8L52.6,44L83.3,37z"/><path fill="#C46B00" d="M87,91.7c-16.3,0-23.7-4.8-23.7-20.5H43.6c0,15.7-7.4,20.5-23.6,20.5S0,117.3,0,117.3h106.9 C106.9,117.3,103.2,91.7,87,91.7z"/><path fill="#50CEB7" d="M88.4,91.1c-15.9-1.2-20-4.5-20-4.5c-0.3,8.8-12.2,9.8-14.9,9.8c-2.7-0.1-14.6-1-14.9-9.8c0,0-4.2,3.3-20,4.5 S0,117.3,0,117.3v2h106.9v-2C106.9,117.3,104.3,92.3,88.4,91.1z"/><path fill="#45322C" d="M31.1 18.2c0 0-8.3 6.6-8.3 33.1v19.1c0 0 8.5 5 30.5 5V42.8l-2.7-22.2L31.1 18.2zM76.6 20.3c0 0 8.4 6.3 8.4 31.9v18.4c0 0-8.5 4.8-30.5 4.8V44l2.7-21.4L76.6 20.3z"/><path fill="#C46B00" d="M29 44.4c-.5-.9-1.5-1.5-2.5-1.6-1.6 0-3 1.5-3 6.6s3.8 9.9 7.4 8.6C31.7 53.3 31 48.6 29 44.4zM77.5 44.4c.5-.9 1.4-1.5 2.5-1.6 1.6 0 3 1.5 3 6.6s-3.8 9.9-7.4 8.6C74.9 53.3 75.5 48.6 77.5 44.4z"/><path fill="#D67C00" d="M53.3,12.6c-28.1,0-26.2,19.4-24.6,38.1s14.6,27.6,24.6,27.6s23.1-8.8,24.6-27.6S81.4,12.6,53.3,12.6z"/><path fill="#FFF" d="M33,44.3c0,0,8-10.1,15.4,2.1C46.3,49.3,36.8,55.1,33,44.3z"/><path fill="#45322C" d="M33,44.3c0,0,3.3-3.5,7.5-3.5s7.9,5.6,7.9,5.6c-1.2-3-3.8-6.3-7.9-6.3C37.5,40.1,34.7,41.7,33,44.3z"/><circle fill="#45322C" cx="40.6" cy="44.4" r="3.7"/><path fill="#45322C" d="M34,36.5c3.9-1,7.8-1.4,11.8-1.3c1,0,1.8-0.6,2-1.6l0.2-0.8c0.1-0.3-0.1-0.5-0.3-0.6c0,0-0.1,0-0.1,0 C45.5,32.2,39,32.3,34,36.5z"/><path fill="#FFF" d="M73.5,44.3c0,0-7.9-10.1-15.4,2.1C60.2,49.3,69.8,55.1,73.5,44.3z"/><path fill="#45322C" d="M73.5,44.3c0,0-3.3-3.5-7.5-3.5s-7.9,5.6-7.9,5.6c1.2-3,3.8-6.3,7.9-6.3C69.1,40.1,71.9,41.7,73.5,44.3z"/><circle fill="#45322C" cx="66" cy="44.4" r="3.7"/><path fill="#45322C" d="M72.6,36.5c-3.9-1-7.8-1.4-11.8-1.3c-1,0-1.8-0.6-2-1.6l-0.2-0.8c-0.1-0.3,0.1-0.5,0.4-0.6c0,0,0.1,0,0.1,0 C61,32.2,67.5,32.3,72.6,36.5z"/><path fill="#C46B00" d="M53.3,55.2c-3.6,0-4.8-1.3-4.8-1.3c0,2,2.6,4.6,4.8,4.6s4.8-2.6,4.8-4.6C58.1,53.8,56.9,55.2,53.3,55.2z"/><ellipse fill="#FFF" cx="44.3" cy="44.4" rx="1.2" ry=".7"/><ellipse fill="#FFF" cx="69.7" cy="44.4" rx="1.2" ry=".7"/><path fill="#FFF" d="M53.3,63.2c-8.2,0-12-2.1-12-2.1c2.1,2.2,6.8,3.9,12,3.9s9.9-1.8,12-3.9C65.2,61.1,61.4,63.2,53.3,63.2z"/><path fill="#C46B00" d="M49.9,68.2c2.3,0.5,4.6,0.5,6.8,0C55.1,69.9,52.6,70.9,49.9,68.2z"/><path fill="#FF5A5F" d="M65.2,61.1c-5.2,1.3-10.8,1-12,1.5c-1.2-0.5-6.8-0.2-12-1.5c0,0,3.5,2.1,12,2.1S65.2,61.1,65.2,61.1z"/><path fill="#FF5A5F" d="M53.3,65c-4.3,0.2-8.6-1.2-12-3.9c2.5,3.8,8.8,5.2,12,5.2s9.5-1.5,12-5.2C61.9,63.8,57.6,65.2,53.3,65z"/><path fill="#45322C" d="M71.6 42.1c0 0 1.1.7 2.8-.5-.5.9-.8 1.3-2.4 1.2 1.8.7 2.4.8 3.6.3-.6.8-1.8.8-3 .3C72.2 43 71.8 42.6 71.6 42.1zM35 42.1c0 0-1.1.7-2.8-.5.5.9.8 1.3 2.4 1.2-1.8.7-2.4.8-3.6.3.6.8 1.8.8 3 .3C34.4 43 34.7 42.6 35 42.1zM25.5 29c0 0-.6-14.4 13.7-16.4 6.1-5.5 14-8.6 22-1.9 7.2-2.2 12.4-.5 14.8 8.6 7.1.3 7.8 11.5 6.9 13.5C75 25.6 69.2 21.3 69.2 21.3L33 30 25.5 29z"/><path fill="#45322C" d="M28.1,43.3c2.9-3.7,1.3-9,1.3-9c3.2,2,6.6-3.3,6.6-3.3c5.3,1.9,17.4-5.9,17.4-5.9c4.1,3.7,14.7,7.7,19.7,6.1 c0.9,4,5,3.8,5,3.8c-1,2.8-0.8,6.9,0.7,8.3l2.3-2.7L79.2,26l-11.6-7.8L27.4,28l-1.9,9.8L28.1,43.3z"/><path fill="#FF5A5F" d="M73.4,24l-1.6,7.2c-0.1,0.6,0.1,1.2,0.7,1.5l0.3,0.1c0.7,0.4,1.5,0.1,1.9-0.6c0.1-0.1,0.1-0.3,0.1-0.4 l1.4-7.3c0.1-0.6-0.2-1.3-0.8-1.5l0,0c-0.7-0.3-1.5,0-1.8,0.7C73.5,23.8,73.5,23.9,73.4,24z"/><path fill="#F5BC2B" d="M235.4 86c-18.1 0-24.7-2.2-24.7-19.6h-25.1c0 17.4-6.6 19.6-24.6 19.6s-22.1 31.7-22.1 31.7h118.7C257.6 117.7 253.5 86 235.4 86zM171.9 39.5c-.6-1-1.6-1.7-2.8-1.8-1.8 0-3.3 1.6-3.3 7.3s4.2 11 8.2 9.5C174.8 49.4 174.1 44.1 171.9 39.5zM225.7 39.5c.6-1 1.6-1.7 2.8-1.8 1.8 0 3.3 1.6 3.3 7.3s-4.2 11-8.2 9.5C222.8 49.4 223.5 44.1 225.7 39.5z"/><path fill="#FDCA47" d="M198.8,4.1c-31.3,0-29.1,21.5-27.4,42.3s16.2,30.7,27.4,30.7s25.7-9.8,27.4-30.7S230.1,4.1,198.8,4.1z"/><path fill="#FFF" d="M176.3,39.4c0,0,8.8-11.2,17.1,2.3C191.1,44.9,180.5,51.4,176.3,39.4z"/><path fill="#45322C" d="M176.3,39.4c0,0,3.7-3.9,8.4-3.9s8.8,6.2,8.8,6.2c-1.4-3.3-4.2-7.1-8.8-7.1C181.3,34.7,178.1,36.5,176.3,39.4 z"/><circle fill="#45322C" cx="184.7" cy="39.5" r="4.1"/><path fill="#45322C" d="M177.4,30.6c4.9-1.2,9.9-1.7,14.9-1.4L193,26C193,26,184,25.1,177.4,30.6z"/><path fill="#FFF" d="M221.3,39.4c0,0-8.8-11.2-17.1,2.3C206.5,44.9,217.1,51.4,221.3,39.4z"/><path fill="#45322C" d="M221.3,39.4c0,0-3.7-3.9-8.4-3.9s-8.8,6.2-8.8,6.2c1.4-3.3,4.2-7.1,8.8-7.1C216.3,34.7,219.5,36.5,221.3,39.4 z"/><circle fill="#45322C" cx="212.9" cy="39.5" r="4.1"/><path fill="#45322C" d="M220.2,30.6c-4.9-1.2-9.9-1.7-14.9-1.4l-0.7-3.2C204.6,26,213.6,25.1,220.2,30.6z"/><path fill="#F5BC2B" d="M198.8,51.4c-4,0-5.3-1.5-5.3-1.5c0,2.2,2.9,5.1,5.3,5.1s5.3-2.9,5.3-5.1C204.1,49.9,202.8,51.4,198.8,51.4z"/><ellipse fill="#FFF" cx="188.8" cy="39.5" rx="1.4" ry=".8"/><ellipse fill="#FFF" cx="217.1" cy="39.5" rx="1.4" ry=".8"/><path fill="#FFF" d="M198.8,60.3c-9.1,0-13.3-2.3-13.3-2.3c2.3,2.4,7.6,4.4,13.3,4.4s11-2,13.3-4.4 C212.1,58,207.9,60.3,198.8,60.3z"/><path fill="#F5BC2B" d="M195,65.9c2.5,0.5,5.1,0.5,7.6,0C200.8,67.8,198,68.9,195,65.9z"/><path fill="#45322C" d="M177.9,15.7c0,0,23.7,9.9,42.4,1.1c-1.8,7.2,4.6,15.4,4.6,15.4c-0.2,4,0.4,8,1.6,11.9 c4-11.9,4.8-27.5-2.4-30.3c-0.1-7.6-11-15.4-29-13.4s-31.6,6.2-23.7,43.8c1.9-6.7,0.9-16.7,0.9-16.7 C176.3,22.8,177.9,15.7,177.9,15.7z"/><path fill="#FF5A5F" d="M237,85.3c-17.6-1.4-22.3-4.2-22.3-4.2c-0.3,9.8-13.6,10.8-16.6,10.9c-3-0.1-16.2-1.1-16.6-10.9 c0,0-4.6,2.8-22.3,4.2s-20.6,32.4-20.6,32.4v2.2h118.8v-2.2C257.6,117.7,254.6,86.7,237,85.3z"/><path fill="#F5F5F5" d="M233.9,100.5l-17.3-8.5c0,0-5.9,4.7-18,4.7s-18-4.7-18-4.7l-17.3,8.5l-4.5,19.4h79.7L233.9,100.5z"/><path fill="#F5BC2B" d="M162.1,99.4c-18.1,0-26.3-5.4-26.3-22.8H114c0,17.4-8.2,22.8-26.3,22.8S65.5,128,65.5,128h118.7 C184.3,128,180.2,99.4,162.1,99.4z"/><path fill="#195972" d="M163.7,98.8c-17.6-1.4-22.3-5-22.3-5c-0.3,9.8-13.6,10.8-16.6,10.9c-3-0.1-16.3-1.1-16.6-10.9 c0,0-4.6,3.6-22.3,5S65.5,128,65.5,128v2.2h118.7V128C184.3,128,181.4,100.1,163.7,98.8z"/><path fill="#E16D42" d="M100.1 17.9c0 0-9.3 7.3-9.3 36.8v21.2c0 0 9.4 5.6 33.9 5.6V45.2l-3-24.6L100.1 17.9zM150.7 20.2c0 0 9.3 7 9.3 35.4v20.4c0 0-9.4 5.4-33.9 5.4V46.5l3-23.7L150.7 20.2z"/><path fill="#F5BC2B" d="M97.8 46.9c-.6-1-1.6-1.7-2.8-1.8-1.8 0-3.3 1.6-3.3 7.3s4.2 11 8.2 9.5C100.7 56.9 100 51.6 97.8 46.9zM151.6 46.9c.6-1 1.6-1.7 2.8-1.8 1.8 0 3.3 1.6 3.3 7.3s-4.2 11-8.2 9.5C148.7 56.8 149.4 51.6 151.6 46.9z"/><path fill="#FDCA47" d="M124.7,11.6c-31.3,0-29.1,21.5-27.4,42.3s16.2,30.7,27.4,30.7s25.7-9.8,27.4-30.7S156,11.6,124.7,11.6z"/><path fill="#FFF" d="M102.3,46.8c0,0,8.8-11.2,17.1,2.3C117,52.4,106.4,58.8,102.3,46.8z"/><path fill="#45322C" d="M102.3,46.8c0,0,3.7-3.8,8.4-3.8s8.8,6.2,8.8,6.2c-1.4-3.3-4.2-7.1-8.8-7.1C107.2,42.2,104.1,44,102.3,46.8z"/><circle fill="#45322C" cx="110.6" cy="47" r="4.1"/><path fill="#E16D42" d="M103.3,38.1c4.3-1.1,8.7-1.6,13.1-1.5c1,0,1.9-0.7,2.2-1.7l0.2-0.8c0.1-0.3-0.1-0.6-0.4-0.6c0,0-0.1,0-0.1,0 C116.1,33.3,108.9,33.5,103.3,38.1z"/><path fill="#FFF" d="M147.2,46.8c0,0-8.8-11.2-17.1,2.3C132.4,52.4,143.1,58.8,147.2,46.8z"/><path fill="#45322C" d="M147.2,46.8c0,0-3.7-3.8-8.4-3.8s-8.8,6.2-8.8,6.2c1.4-3.3,4.2-7.1,8.8-7.1C142.2,42.2,145.4,44,147.2,46.8z"/><circle fill="#45322C" cx="138.8" cy="47" r="4.1"/><path fill="#E16D42" d="M146.1,38.1c-4.3-1.1-8.7-1.6-13.1-1.5c-1,0-1.9-0.7-2.2-1.7l-0.2-0.8c-0.1-0.3,0.1-0.6,0.4-0.6 c0,0,0.1,0,0.1,0C133.3,33.3,140.5,33.5,146.1,38.1z"/><path fill="#F5BC2B" d="M124.7,58.9c-4,0-5.3-1.5-5.3-1.5c0,2.2,2.9,5.1,5.3,5.1s5.3-2.9,5.3-5.1C130.1,57.4,128.7,58.9,124.7,58.9z"/><ellipse fill="#FFF" cx="114.8" cy="47" rx="1.3" ry=".8"/><ellipse fill="#FFF" cx="143" cy="47" rx="1.4" ry=".8"/><path fill="#FFF" d="M124.7,67.8c-9,0-13.3-2.3-13.3-2.3c2.3,2.4,7.6,4.4,13.3,4.4s11-2,13.3-4.4C138,65.5,133.8,67.8,124.7,67.8z"/><path fill="#F5BC2B" d="M120.9,73.4c2.5,0.5,5.1,0.5,7.6,0C126.7,75.2,123.9,76.3,120.9,73.4z"/><path fill="#FF5A5F" d="M138,65.5c-5.8,1.4-12,1.1-13.3,1.6c-1.3-0.5-7.5-0.2-13.3-1.6c0,0,3.9,2.3,13.3,2.3S138,65.5,138,65.5z"/><path fill="#FF5A5F" d="M124.7,69.9c-7.4,0-11.3-2.8-13.3-4.4c2.7,4.2,9.7,5.8,13.3,5.8s10.6-1.7,13.3-5.8 C136.1,67,132.1,69.9,124.7,69.9z"/><path fill="#45322C" d="M145.1 44.4c0 0 1.2.8 3.1-.5-.5 1-.9 1.4-2.6 1.3 1.9.8 2.7.8 3.9.3-.7.9-2 .9-3.3.3C145.7 45.4 145.4 44.9 145.1 44.4zM104.5 44.4c0 0-1.2.8-3.1-.5.5 1 .9 1.4 2.6 1.3-2 .8-2.7.8-4 .3.7.9 2 .9 3.3.3C103.7 45.4 104.1 44.9 104.5 44.4z"/><path fill="#E16D42" d="M96.6,35.8c0,0,25.7,2.1,46.4-10.3c-1,6.6,1.1,13.3,9.7,20.2c3.1-12.1,3.9-21.2-3.3-26.8 c-5.3-8.7-16.6-11.5-30-10.6s-30.3,9.5-22.7,37.3C97.7,39.3,96.6,35.8,96.6,35.8z"/><path fill="#F5F5F5" d="M108.4 93.8c0 0 2.3 9.7 16.5 10.9C120.5 112.8 104.4 115.5 108.4 93.8zM141.5 93.8c0 0-2.4 9.7-16.6 10.9C129.3 112.8 145.4 115.5 141.5 93.8z"/></svg>