<svg xmlns="http://www.w3.org/2000/svg" xmlns:xlink="http://www.w3.org/1999/xlink" width="258.1" height="208.2" viewBox="0 0 258.1 208.2" class="c-icon__svg" aria-hidden="true"><path fill="#E16D42" d="M138.7,45.1h6.3c1.2,0,2.1,0.9,2.1,2.1v19.6l0,0h-10.5l0,0V47.3C136.6,46.1,137.6,45.1,138.7,45.1 C138.7,45.1,138.7,45.1,138.7,45.1z"/><path fill="#45322C" d="M145.5,45.1h-3.6v21.7h5.3V46.8C147.2,45.9,146.4,45.1,145.5,45.1C145.5,45.1,145.5,45.1,145.5,45.1z" opacity=".4"/><path fill="#829CA7" d="M125.3,163.1h60.2c2.6,0,4.7-2.1,4.7-4.7c0,0,0,0,0,0v-45.7c0-2.6,2.1-4.6,4.7-4.6h-73.3v53.2 C122.5,162.5,123.9,163.1,125.3,163.1z"/><path fill="#829CA7" d="M194.9,108.1h-73.3v9h68.6v-4.4C190.2,110.2,192.3,108.1,194.9,108.1z"/><path fill="#FF5A5F" d="M194.9,108.1h3.1c1.5,0,2.8-1.2,2.8-2.8c0-0.7-0.3-1.4-0.8-1.9l-9.7-9.7v-0.2h-0.2l-31.3-31.4 c-0.9-0.9-2.1-1.4-3.3-1.4H99.8v38.5h15.1l-4,4c-1.1,1.1-1.1,2.8,0,3.9c0.5,0.5,1.2,0.8,2,0.8h3.1c2.6,0,4.7,2.1,4.7,4.7v45.7 c0,1,0.3,2.1,1,2.9v-53.2H194.9z"/><path fill="#B3CDD7" d="M142.4,108.1c1.5,0,2.8-1.2,2.8-2.7c0-0.7-0.3-1.5-0.8-2l-9.7-9.7v-0.2h-0.2l-31.4-31.4 c-1.8-1.8-4.8-1.8-6.6,0L65.2,93.5h-0.2v0.2l-9.7,9.7c-1.1,1.1-1.1,2.8,0,3.9c0.5,0.5,1.2,0.8,2,0.8h3c2.6,0,4.7,2.1,4.7,4.7v45.7 c0,2.6,2.1,4.7,4.6,4.7c0,0,0,0,0,0H130c2.6,0,4.7-2.1,4.7-4.7v-45.7c0-2.6,2.1-4.6,4.7-4.6H142.4z"/><path fill="#FFF" d="M93.5,125.2h12.7c1.3,0,2.3,1,2.3,2.3v26.8c0,1.3-1,2.3-2.3,2.3H93.5c-1.3,0-2.3-1-2.3-2.3v-26.8 C91.2,126.2,92.2,125.2,93.5,125.2z"/><path fill="#829CA7" d="M106.7,125.2c1,0,1.8,0.8,1.8,1.8v27.8c0,1-0.8,1.8-1.8,1.8H93c-1,0-1.8-0.8-1.8-1.8V127c0-1,0.8-1.8,1.8-1.8 H106.7 M106.7,122.9H93c-2.3,0-4.1,1.8-4.1,4.1v27.8c0,2.3,1.8,4.1,4.1,4.1h13.7c2.3,0,4.1-1.9,4.1-4.1V127 C110.8,124.7,109,122.9,106.7,122.9z"/><path fill="#FFF" d="M147.5,125.2h9.2c1.3,0,2.3,1,2.3,2.3v11.1c0,1.3-1,2.3-2.3,2.3h-9.2c-1.3,0-2.3-1-2.3-2.3v-11.1 C145.1,126.2,146.2,125.2,147.5,125.2z"/><path fill="#195972" d="M157.2,125.2c1,0,1.8,0.8,1.8,1.8v12.1c0,1-0.8,1.8-1.8,1.8H147c-1,0-1.8-0.8-1.8-1.8V127 c0-1,0.8-1.8,1.8-1.8H157.2 M157.2,122.9H147c-2.3,0-4.1,1.8-4.1,4.1v12.1c0,2.3,1.8,4.1,4.1,4.1h10.3c2.3,0,4.1-1.9,4.1-4.1V127 C161.4,124.7,159.5,122.9,157.2,122.9z"/><path fill="#FFF" d="M171.1,125.2h9.2c1.3,0,2.3,1,2.3,2.3v11.1c0,1.3-1,2.3-2.3,2.3h-9.2c-1.3,0-2.3-1-2.3-2.3v-11.1 C168.8,126.2,169.8,125.2,171.1,125.2z"/><path fill="#195972" d="M180.8,125.2c1,0,1.8,0.8,1.8,1.8v12.1c0,1-0.8,1.8-1.8,1.8h-10.3c-1,0-1.8-0.8-1.8-1.8V127 c0-1,0.8-1.8,1.8-1.8H180.8 M180.9,122.9h-10.3c-2.3,0-4.1,1.8-4.1,4.1v12.1c0,2.3,1.8,4.1,4.1,4.1h10.3c2.3,0,4.1-1.9,4.1-4.1 V127C185,124.7,183.1,122.9,180.9,122.9L180.9,122.9z"/><circle fill="#829CA7" cx="99.8" cy="98.3" r="10.9"/><path fill="#FFF" d="M101.5 97.3h6.2c.4 0 .7-.3.7-.7 0 0 0-.1 0-.1-.7-3.3-3.3-5.9-6.7-6.7-.4-.1-.7.2-.8.5 0 0 0 .1 0 .1v6.2C100.9 97 101.2 97.3 101.5 97.3L101.5 97.3zM98.8 96.7v-6.2c0-.4-.3-.7-.7-.7 0 0-.1 0-.1 0-3.3.7-5.9 3.3-6.7 6.7-.1.4.1.7.5.8 0 0 .1 0 .1 0h6.2C98.5 97.3 98.8 97 98.8 96.7L98.8 96.7zM100.9 100v6.2c0 .4.3.7.6.7 0 0 .1 0 .1 0 3.3-.7 6-3.3 6.7-6.7.1-.4-.2-.7-.5-.8 0 0-.1 0-.1 0h-6.2C101.2 99.3 100.9 99.6 100.9 100 100.9 100 100.9 100 100.9 100zM98.2 99.4H92c-.4 0-.7.3-.7.6 0 0 0 .1 0 .1.7 3.3 3.3 5.9 6.7 6.7.4.1.7-.1.8-.5 0 0 0-.1 0-.1V100C98.8 99.7 98.5 99.4 98.2 99.4L98.2 99.4z"/><defs><circle id="SVGID_1_" cx="108.5" cy="78.1" r="52"/></defs><clipPath id="SVGID_2_"><use xlink:href="#SVGID_1_" overflow="visible"/></clipPath><g clip-path="url(#SVGID_2_)"><path fill="#E16D42" d="M147,0h14.4c1.2,0,2.1,0.9,2.1,2.1v36.2l0,0h-18.6l0,0V2.1C144.9,0.9,145.8,0,147,0C147,0,147,0,147,0z"/><path fill="#45322C" d="M160.6,0h-6.4v38.3h9.3V2.9C163.5,1.3,162.2,0,160.6,0C160.6,0,160.6,0,160.6,0z" opacity=".4"/><path fill="#829CA7" d="M124.9,208.2h106.4c4.5,0,8.2-3.7,8.2-8.2v-80.6c0-4.6,3.7-8.2,8.2-8.3c0,0,0,0,0,0H118.4v94 C120,207.1,122.4,208.2,124.9,208.2z"/><path fill="#829CA7" d="M247.8,111.1H118.4V127h121.1v-7.6C239.5,114.8,243.2,111.1,247.8,111.1 C247.8,111.1,247.8,111.1,247.8,111.1z"/><path fill="#FF5A5F" d="M247.8,111.1h5.4c2.7,0,4.9-2.2,4.9-4.9c0-1.3-0.5-2.5-1.4-3.5l-17.1-17.1v-0.3h-0.3l-55.3-55.3 c-1.5-1.5-3.6-2.4-5.8-2.4H80v68h26.7l-7.1,7.1c-1.9,1.9-1.9,5,0,6.9c0.9,0.9,2.2,1.4,3.4,1.4h5.4c4.6,0,8.2,3.7,8.2,8.2V200 c0,1.9,0.6,3.7,1.8,5.1v-94H247.8z"/><path fill="#B3CDD7" d="M155.1,111.1c2.7,0,4.9-2.2,4.9-4.9c0-1.3-0.5-2.5-1.4-3.5l-17.1-17.1v-0.3h-0.3L85.8,30.1 c-3.2-3.2-8.4-3.2-11.6,0L18.8,85.4h-0.3v0.3L1.4,102.8c-1.9,1.9-1.9,5,0,6.9c0.9,0.9,2.2,1.4,3.4,1.4h5.4 c4.6,0,8.2,3.7,8.2,8.2V200c0,4.5,3.7,8.2,8.2,8.2c0,0,0,0,0,0h106.4c4.5,0,8.2-3.7,8.2-8.2v-80.6c0-4.6,3.7-8.2,8.2-8.2 c0,0,0,0,0,0H155.1z"/><path fill="#FFF" d="M67,141.3h26c1.3,0,2.3,1,2.3,2.3v50.9c0,1.3-1,2.3-2.3,2.3H67c-1.3,0-2.3-1-2.3-2.3v-50.9 C64.7,142.4,65.7,141.3,67,141.3z"/><path fill="#829CA7" d="M92.1,141.3c1.8,0,3.2,1.4,3.2,3.2c0,0,0,0,0,0v49.1c0,1.8-1.4,3.2-3.2,3.2c0,0,0,0,0,0H67.9 c-1.8,0-3.2-1.4-3.2-3.2c0,0,0,0,0,0v-49.1c0-1.8,1.4-3.2,3.2-3.2c0,0,0,0,0,0H92.1 M92.1,137.2H67.9c-4,0-7.3,3.3-7.3,7.3v49.1 c0,4,3.3,7.3,7.3,7.3h24.2c4,0,7.3-3.3,7.3-7.3v-49.1C99.4,140.5,96.1,137.2,92.1,137.2z"/><path fill="#FFF" d="M162.3,141.3h19.9c1.3,0,2.3,1,2.3,2.3v23.1c0,1.3-1,2.3-2.3,2.3h-19.9c-1.3,0-2.3-1-2.3-2.3v-23.1 C160,142.4,161,141.3,162.3,141.3z"/><path fill="#195972" d="M181.3,141.3c1.8,0,3.2,1.4,3.2,3.2c0,0,0,0,0,0v21.4c0,1.8-1.4,3.2-3.2,3.2l0,0h-18.2 c-1.8,0-3.2-1.4-3.2-3.2l0,0v-21.4c0-1.8,1.4-3.2,3.2-3.2c0,0,0,0,0,0H181.3 M181.3,137.2h-18.2c-4,0-7.3,3.3-7.3,7.3v21.4 c0,4,3.3,7.3,7.3,7.3h18.2c4,0,7.3-3.3,7.3-7.3v-21.4C188.6,140.5,185.3,137.2,181.3,137.2z"/><path fill="#FFF" d="M204,141.3h19.9c1.3,0,2.3,1,2.3,2.3v23.1c0,1.3-1,2.3-2.3,2.3H204c-1.3,0-2.3-1-2.3-2.3v-23.1 C201.6,142.4,202.7,141.3,204,141.3z"/><path fill="#195972" d="M223,141.3c1.8,0,3.2,1.4,3.2,3.2c0,0,0,0,0,0v21.4c0,1.8-1.4,3.2-3.2,3.2l0,0h-18.2 c-1.8,0-3.2-1.4-3.2-3.2l0,0v-21.4c0-1.8,1.4-3.2,3.2-3.2l0,0H223 M222.9,137.2h-18.1c-4,0-7.3,3.3-7.3,7.3v21.4 c0,4,3.3,7.3,7.3,7.3h18.1c4,0,7.3-3.3,7.3-7.3v-21.4C230.2,140.5,226.9,137.2,222.9,137.2z"/><circle fill="#829CA7" cx="80" cy="93.8" r="19.3"/><path fill="#FFF" d="M82.9 92.1h10.8c.6 0 1.2-.5 1.2-1.2 0-.1 0-.2 0-.2-1.3-5.9-5.8-10.5-11.7-11.8-.6-.1-1.3.3-1.4.9 0 .1 0 .2 0 .2v10.9C81.8 91.6 82.3 92.1 82.9 92.1 82.9 92.1 82.9 92.1 82.9 92.1zM78.2 90.9V80.1c0-.6-.5-1.2-1.2-1.2-.1 0-.1 0-.2 0-5.9 1.3-10.5 5.9-11.8 11.8-.1.6.2 1.2.9 1.4.1 0 .2 0 .3 0H77C77.7 92.1 78.2 91.6 78.2 90.9 78.2 90.9 78.2 90.9 78.2 90.9zM81.8 96.9v10.9c0 .6.5 1.2 1.2 1.2.1 0 .2 0 .2 0 5.9-1.3 10.5-5.9 11.8-11.8.1-.6-.3-1.3-.9-1.4-.1 0-.2 0-.3 0H82.9C82.3 95.7 81.8 96.2 81.8 96.9zM77 95.7H66.1c-.6 0-1.2.5-1.2 1.2 0 .1 0 .2 0 .2 1.3 5.9 5.9 10.5 11.8 11.8.6.1 1.3-.3 1.4-.9 0-.1 0-.1 0-.2V96.9C78.2 96.2 77.7 95.7 77 95.7 77 95.7 77 95.7 77 95.7z"/></g><circle fill="#F5F5F5" cx="107.8" cy="78.1" r="52" opacity=".4"/><path transform="rotate(-45.001 176.947 146.584)" fill="#E6A402" d="M172.3 100.7H181.60000000000002V192.5H172.3z"/><path fill="#45322C" d="M152.6,130.5l7.5-7.5c1.5-1.5,3.9-1.5,5.4,0l50.3,50.3c1.5,1.5,1.5,3.9,0,5.4l-7.5,7.5 c-1.5,1.5-3.9,1.5-5.4,0l-50.3-50.3C151.1,134.4,151.1,132,152.6,130.5z"/><path fill="#D67C00" opacity=".5" d="M141.9 118.2L146.5 122.8 157.5 120.6 148.5 111.5z"/><path fill="#E16D42" d="M146.6,39.2c-21.5-21.5-56.3-21.5-77.8,0s-21.5,56.3,0,77.8s56.3,21.5,77.8,0c0,0,0,0,0,0 C168.1,95.5,168.1,60.7,146.6,39.2z M142.3,112.7c-19.1,19.1-50.1,19.1-69.2,0s-19.1-50.1,0-69.2c19.1-19.1,50.1-19.1,69.2,0 C161.4,62.6,161.4,93.6,142.3,112.7C142.3,112.7,142.3,112.7,142.3,112.7z"/><path fill="#FFF" d="M84.9,106.6c-1.6,1.6-4.1,1.6-5.7,0c0,0,0,0,0,0c-15.7-15.8-15.7-41.3,0-57.1c1.6-1.6,4.1-1.6,5.7,0 s1.6,4.1,0,5.7c-12.6,12.6-12.6,33.1,0,45.8C86.4,102.5,86.4,105.1,84.9,106.6C84.9,106.6,84.9,106.6,84.9,106.6z"/><path fill="#F5BC2B" d="M71.3,115.3c-0.2,0.2-0.5,0.2-0.7,0c0,0,0,0,0,0c-20.5-20.5-20.5-53.8,0-74.3c0.2-0.2,0.5-0.2,0.7,0 c0,0,0,0,0,0c0.2,0.2,0.2,0.5,0,0.7c-20.1,20.1-20.1,52.8,0,72.9C71.5,114.8,71.5,115.1,71.3,115.3z" opacity=".5"/></svg>